# xmcd
#
# Track frame offsets: 
#        150
#        15414
#        27799
#        40634
#        53432
#        64955
#        76740
#        93775
#        109048
#        122558
#        140268
#        167241
#        186451
#        194563
#        215798
#        227762
#        242472
#        251595
#        267580
#        280490
#
# Disc length: 3967 seconds
#
# Revision: 0
# Processed by: cddbd v1.5.2PL0 Copyright (c) Steve Scherf et al.
# Submitted via: ExactAudioCopyFreeDBPlugin 1.0
#
DISCID=140f7d14
DTITLE=Joan Baez - Donna Donna
DYEAR=2019
DGENRE=Blues
TTITLE0=O what a beautiful city!
TTITLE1=Black is the color
TTITLE2=Sail away ladies
TTITLE3=Lowlands
TTITLE4=What you gonna call your pretty little baby
TTITLE5=Silver dagger
TTITLE6=East Virginia
TTITLE7=Fare thee well
TTITLE8=House of the rising sun
TTITLE9=John Riley
TTITLE10=Mary Hamilton
TTITLE11=Henry Martin
TTITLE12=Girl fo the constant sorrow
TTITLE13=All my trials
TTITLE14=Wildwood flowers
TTITLE15=Donna Donna
TTITLE16=Rake and rambling boy
TTITLE17=Little Moses
TTITLE18=El Preso número nueve
TTITLE19=I Know you rider
EXTD=
EXTT0=
EXTT1=
EXTT2=
EXTT3=
EXTT4=
EXTT5=
EXTT6=
EXTT7=
EXTT8=
EXTT9=
EXTT10=
EXTT11=
EXTT12=
EXTT13=
EXTT14=
EXTT15=
EXTT16=
EXTT17=
EXTT18=
EXTT19=
PLAYORDER=
